<svg xmlns="http://www.w3.org/2000/svg" xmlns:xlink="http://www.w3.org/1999/xlink" width="500" zoomAndPan="magnify" viewBox="0 0 375 374.999991" height="500" preserveAspectRatio="xMidYMid meet" version="1.0"><path stroke-linecap="round" transform="matrix(0.75, 0, 0, 0.75, 15.000004, 45.436029)" fill="none" stroke-linejoin="miter" d="M 24.999997 336.955108 L 24.999997 25.001963 " stroke="#ffffff" stroke-width="50" stroke-opacity="1" stroke-miterlimit="4"/><path stroke-linecap="round" transform="matrix(0, 0.75, -0.75, 0, 202.122793, 99.204339)" fill="none" stroke-linejoin="miter" d="M 22.498383 22.502267 L 276.206733 22.502267 " stroke="#ffffff" stroke-width="45" stroke-opacity="1" stroke-miterlimit="4"/><path stroke-linecap="round" transform="matrix(0.729413, -0.17452, 0.17452, 0.729413, 159.335912, 319.215214)" fill="none" stroke-linejoin="miter" d="M 31.401427 34.546358 C 98.61565 23.760355 166.979401 23.815468 236.501598 34.719186 " stroke="#ffffff" stroke-width="53" stroke-opacity="1" stroke-miterlimit="4"/><path stroke-linecap="round" transform="matrix(0.723339, 0.198195, -0.198195, 0.723339, 22.022812, 266.765783)" fill="none" stroke-linejoin="miter" d="M 31.40335 34.549117 C 98.613011 23.758928 166.981176 23.819141 236.505091 34.71971 " stroke="#ffffff" stroke-width="53" stroke-opacity="1" stroke-miterlimit="4"/><path stroke-linecap="round" transform="matrix(0.729413, -0.17452, 0.17452, 0.729413, 157.085913, 86.199422)" fill="none" stroke-linejoin="miter" d="M 31.401375 34.546575 C 98.615598 23.760572 166.979349 23.815685 236.501546 34.719403 " stroke="#ffffff" stroke-width="53" stroke-opacity="1" stroke-miterlimit="4"/><path stroke-linecap="round" transform="matrix(0.723339, 0.198195, -0.198195, 0.723339, 19.772812, 33.74998)" fill="none" stroke-linejoin="miter" d="M 31.403413 34.549347 C 98.613074 23.759158 166.981239 23.819371 236.505154 34.71994 " stroke="#ffffff" stroke-width="53" stroke-opacity="1" stroke-miterlimit="4"/><path stroke-linecap="round" transform="matrix(0.75, 0, 0, 0.75, 322.499983, 51.766098)" fill="none" stroke-linejoin="miter" d="M 25.000024 336.957725 L 25.000024 24.999371 " stroke="#ffffff" stroke-width="50" stroke-opacity="1" stroke-miterlimit="4"/></svg>