<svg xmlns="http://www.w3.org/2000/svg" xmlns:xlink="http://www.w3.org/1999/xlink" width="500" zoomAndPan="magnify" viewBox="0 0 375 374.999991" height="500" preserveAspectRatio="xMidYMid meet" version="1.0"><path stroke-linecap="round" transform="matrix(0, -0.75, 0.75, 0, 218.715972, 345.332877)" fill="none" stroke-linejoin="miter" d="M 22.501129 22.498497 L 177.771972 22.498497 " stroke="#ffffff" stroke-width="45" stroke-opacity="1" stroke-miterlimit="4"/><path stroke-linecap="butt" transform="matrix(0.75, 0, 0, 0.75, 235.593651, 153.256161)" fill="none" stroke-linejoin="miter" d="M 0.000131428 229.319925 L 54.687635 229.319925 C 69.192844 229.319925 83.099095 223.5543 93.359513 213.299091 C 103.614722 203.043882 109.375139 189.137631 109.375139 174.632422 L 109.375139 0.00220182 " stroke="#ffffff" stroke-width="53" stroke-opacity="1" stroke-miterlimit="4"/><path stroke-linecap="round" transform="matrix(0.749999, -0.00130855, 0.00130855, 0.749999, 128.38501, 195.099422)" fill="none" stroke-linejoin="miter" d="M 22.499515 22.500479 L 142.161164 22.500923 " stroke="#ffffff" stroke-width="45" stroke-opacity="1" stroke-miterlimit="4"/><path stroke-linecap="round" transform="matrix(0, -0.75, 0.75, 0, 128.411773, 345.332877)" fill="none" stroke-linejoin="miter" d="M 22.501129 22.497846 L 177.771972 22.497846 " stroke="#ffffff" stroke-width="45" stroke-opacity="1" stroke-miterlimit="4"/><path stroke-linecap="butt" transform="matrix(0.75, 0, 0, 0.75, 42.117263, 153.256161)" fill="none" stroke-linejoin="miter" d="M 137.562408 229.319925 L 82.031154 229.319925 C 67.301987 229.319925 53.176986 223.465758 42.765527 213.054299 C 32.348859 202.637632 26.499901 188.512631 26.499901 173.788672 L 26.499901 0.00220182 " stroke="#ffffff" stroke-width="53" stroke-opacity="1" stroke-miterlimit="4"/><path stroke-linecap="round" transform="matrix(0.564138, 0.494215, -0.494215, 0.564138, 186.030784, 12.67573)" fill="none" stroke-linejoin="miter" d="M 27.998777 27.999273 L 255.917868 27.998472 " stroke="#ffffff" stroke-width="56" stroke-opacity="1" stroke-miterlimit="4"/><path stroke-linecap="round" transform="matrix(-0.555929, 0.503431, -0.503431, -0.555929, 216.33642, 44.035221)" fill="none" stroke-linejoin="miter" d="M 27.999606 27.997569 L 250.720246 27.996459 " stroke="#ffffff" stroke-width="56" stroke-opacity="1" stroke-miterlimit="4"/></svg>