<svg xmlns="http://www.w3.org/2000/svg" xmlns:xlink="http://www.w3.org/1999/xlink" width="500" zoomAndPan="magnify" viewBox="0 0 375 374.999991" height="500" preserveAspectRatio="xMidYMid meet" version="1.0"><path fill="#fefefe" d="M 92.316406 152.566406 L 281.957031 152.566406 C 295.976562 152.566406 307.441406 164.035156 307.441406 178.050781 L 307.441406 322.21875 C 307.441406 336.238281 295.976562 347.707031 281.957031 347.707031 L 92.316406 347.707031 C 78.300781 347.707031 66.832031 336.238281 66.832031 322.21875 L 66.832031 178.050781 C 66.832031 164.035156 78.300781 152.566406 92.316406 152.566406 Z M 202.679688 248.566406 L 202.679688 280.972656 C 202.679688 289.519531 195.6875 296.511719 187.136719 296.511719 C 178.589844 296.511719 171.59375 289.519531 171.59375 280.972656 L 171.59375 248.566406 C 165.773438 243.96875 162.039062 236.851562 162.039062 228.859375 C 162.039062 215 173.277344 203.761719 187.136719 203.761719 C 200.996094 203.761719 212.234375 215 212.234375 228.859375 C 212.234375 236.851562 208.496094 243.96875 202.679688 248.566406 " fill-opacity="1" fill-rule="evenodd"/><path fill="#fefefe" d="M 187.136719 27.128906 C 237.609375 27.128906 278.90625 68.421875 278.90625 118.894531 L 278.90625 184.023438 C 278.90625 190.445312 278.234375 196.710938 276.964844 202.769531 L 241.65625 202.769531 C 243.691406 196.886719 244.804688 190.578125 244.804688 184.023438 L 244.804688 118.894531 C 244.804688 87.175781 218.855469 61.230469 187.136719 61.230469 C 155.417969 61.230469 129.46875 87.175781 129.46875 118.894531 L 129.46875 184.023438 C 129.46875 190.578125 130.578125 196.886719 132.617188 202.769531 L 97.308594 202.769531 C 96.039062 196.710938 95.367188 190.445312 95.367188 184.023438 L 95.367188 118.894531 C 95.367188 68.421875 136.664062 27.128906 187.136719 27.128906 " fill-opacity="1" fill-rule="evenodd"/></svg>