<svg xmlns="http://www.w3.org/2000/svg" xmlns:xlink="http://www.w3.org/1999/xlink" width="500" zoomAndPan="magnify" viewBox="0 0 375 374.999991" height="500" preserveAspectRatio="xMidYMid meet" version="1.0"><defs><clipPath id="907c160a0c"><path d="M 27 88 L 285.859375 88 L 285.859375 347 L 27 347 Z M 27 88 " clip-rule="nonzero"/></clipPath><clipPath id="3f51f40675"><path d="M 167.3125 96.808594 L 182.070312 145.167969 C 188.914062 167.59375 206.449219 185.15625 228.863281 192.042969 L 276.886719 206.789062 C 281.722656 208.273438 285.023438 212.738281 285.023438 217.796875 C 285.023438 222.855469 281.722656 227.320312 276.886719 228.804688 L 228.863281 243.550781 C 206.449219 250.433594 188.914062 268 182.070312 290.425781 L 167.3125 338.785156 C 165.84375 343.601562 161.402344 346.890625 156.367188 346.890625 C 151.335938 346.890625 146.890625 343.601562 145.421875 338.785156 L 130.664062 290.425781 C 123.820312 268 106.285156 250.433594 83.871094 243.550781 L 35.847656 228.804688 C 31.011719 227.320312 27.710938 222.855469 27.710938 217.796875 C 27.710938 212.738281 31.011719 208.273438 35.847656 206.789062 L 83.871094 192.042969 C 106.285156 185.15625 123.820312 167.59375 130.664062 145.167969 L 145.421875 96.808594 C 146.890625 91.992188 151.335938 88.703125 156.367188 88.703125 C 161.402344 88.703125 165.84375 91.992188 167.3125 96.808594 Z M 167.3125 96.808594 " clip-rule="nonzero"/></clipPath><clipPath id="26a80244d1"><path d="M 0.601562 0.558594 L 258.121094 0.558594 L 258.121094 259 L 0.601562 259 Z M 0.601562 0.558594 " clip-rule="nonzero"/></clipPath><clipPath id="c2268541ea"><path d="M 140.3125 8.808594 L 155.070312 57.167969 C 161.914062 79.59375 179.449219 97.15625 201.863281 104.042969 L 249.886719 118.789062 C 254.722656 120.273438 258.023438 124.738281 258.023438 129.796875 C 258.023438 134.855469 254.722656 139.320312 249.886719 140.804688 L 201.863281 155.550781 C 179.449219 162.433594 161.914062 180 155.070312 202.425781 L 140.3125 250.785156 C 138.84375 255.601562 134.402344 258.890625 129.367188 258.890625 C 124.335938 258.890625 119.890625 255.601562 118.421875 250.785156 L 103.664062 202.425781 C 96.820312 180 79.285156 162.433594 56.871094 155.550781 L 8.847656 140.804688 C 4.011719 139.320312 0.710938 134.855469 0.710938 129.796875 C 0.710938 124.738281 4.011719 120.273438 8.847656 118.789062 L 56.871094 104.042969 C 79.285156 97.15625 96.820312 79.59375 103.664062 57.167969 L 118.421875 8.808594 C 119.890625 3.992188 124.335938 0.703125 129.367188 0.703125 C 134.402344 0.703125 138.84375 3.992188 140.3125 8.808594 Z M 140.3125 8.808594 " clip-rule="nonzero"/></clipPath><clipPath id="09c1fa9631"><rect x="0" width="259" y="0" height="259"/></clipPath><clipPath id="8acbd494aa"><path d="M 216 27.714844 L 347 27.714844 L 347 162.792969 L 216 162.792969 Z M 216 27.714844 " clip-rule="nonzero"/></clipPath><clipPath id="4ee62da6a1"><path d="M 288.460938 33.902344 L 288.71875 35.640625 C 292.707031 62.378906 313.539062 83.460938 340.226562 87.773438 C 343.777344 88.347656 346.390625 91.414062 346.390625 95.011719 C 346.390625 98.609375 343.777344 101.675781 340.226562 102.25 C 313.539062 106.5625 292.707031 127.644531 288.71875 154.382812 L 288.460938 156.121094 C 287.945312 159.566406 284.988281 162.117188 281.503906 162.117188 C 278.019531 162.117188 275.0625 159.566406 274.546875 156.121094 L 274.289062 154.382812 C 270.300781 127.644531 249.46875 106.5625 222.78125 102.25 C 219.226562 101.675781 216.617188 98.609375 216.617188 95.011719 C 216.617188 91.414062 219.226562 88.347656 222.78125 87.773438 C 249.46875 83.460938 270.300781 62.378906 274.289062 35.640625 L 274.546875 33.902344 C 275.0625 30.457031 278.019531 27.90625 281.503906 27.90625 C 284.988281 27.90625 287.945312 30.457031 288.460938 33.902344 Z M 288.460938 33.902344 " clip-rule="nonzero"/></clipPath><clipPath id="d06d9261d0"><path d="M 0.480469 0.839844 L 130.558594 0.839844 L 130.558594 135.238281 L 0.480469 135.238281 Z M 0.480469 0.839844 " clip-rule="nonzero"/></clipPath><clipPath id="7c5f159b4f"><path d="M 72.460938 6.902344 L 72.71875 8.640625 C 76.707031 35.378906 97.539062 56.460938 124.226562 60.773438 C 127.777344 61.347656 130.390625 64.414062 130.390625 68.011719 C 130.390625 71.609375 127.777344 74.675781 124.226562 75.25 C 97.539062 79.5625 76.707031 100.644531 72.71875 127.382812 L 72.460938 129.121094 C 71.945312 132.566406 68.988281 135.117188 65.503906 135.117188 C 62.019531 135.117188 59.0625 132.566406 58.546875 129.121094 L 58.289062 127.382812 C 54.300781 100.644531 33.46875 79.5625 6.78125 75.25 C 3.226562 74.675781 0.617188 71.609375 0.617188 68.011719 C 0.617188 64.414062 3.226562 61.347656 6.78125 60.773438 C 33.46875 56.460938 54.300781 35.378906 58.289062 8.640625 L 58.546875 6.902344 C 59.0625 3.457031 62.019531 0.90625 65.503906 0.90625 C 68.988281 0.90625 71.945312 3.457031 72.460938 6.902344 Z M 72.460938 6.902344 " clip-rule="nonzero"/></clipPath><clipPath id="8754c68475"><rect x="0" width="131" y="0" height="136"/></clipPath><clipPath id="b27f54359f"><rect x="0" width="375" y="0" height="375"/></clipPath></defs><g transform="matrix(1, 0, 0, 1, 0, 0)"><g clip-path="url(#b27f54359f)"><g clip-path="url(#907c160a0c)"><g clip-path="url(#3f51f40675)"><g transform="matrix(1, 0, 0, 1, 27, 88)"><g clip-path="url(#09c1fa9631)"><g clip-path="url(#26a80244d1)"><g clip-path="url(#c2268541ea)"><rect x="-163.5" width="648" fill="#fefefe" y="-224.499997" height="647.999984" fill-opacity="1"/></g></g></g></g></g></g><g clip-path="url(#8acbd494aa)"><g clip-path="url(#4ee62da6a1)"><g transform="matrix(1, 0, 0, 1, 216, 27)"><g clip-path="url(#8754c68475)"><g clip-path="url(#d06d9261d0)"><g clip-path="url(#7c5f159b4f)"><rect x="-352.5" width="648" fill="#fefefe" y="-163.499997" height="647.999984" fill-opacity="1"/></g></g></g></g></g></g></g></g></svg>