<svg xmlns="http://www.w3.org/2000/svg" xmlns:xlink="http://www.w3.org/1999/xlink" width="500" zoomAndPan="magnify" viewBox="0 0 375 374.999991" height="500" preserveAspectRatio="xMidYMid meet" version="1.0"><defs><clipPath id="0cd6cd8e8b"><path d="M 38 32.386719 L 306.488281 32.386719 L 306.488281 166.425781 L 38 166.425781 Z M 38 32.386719 " clip-rule="nonzero"/></clipPath><clipPath id="21e208c215"><path d="M 306.488281 166.425781 C 306.488281 93.417969 245.457031 32.386719 172.449219 32.386719 C 99.441406 32.386719 38.410156 93.417969 38.410156 166.425781 L 112.835938 166.425781 C 112.835938 133.957031 139.980469 106.8125 172.449219 106.8125 C 204.917969 106.8125 232.0625 133.957031 232.0625 166.425781 Z M 306.488281 166.425781 " clip-rule="nonzero"/></clipPath><clipPath id="0a620860e8"><path d="M 0.398438 0.386719 L 268.488281 0.386719 L 268.488281 134.425781 L 0.398438 134.425781 Z M 0.398438 0.386719 " clip-rule="nonzero"/></clipPath><clipPath id="a30417d58d"><path d="M 268.488281 134.425781 C 268.488281 61.417969 207.457031 0.386719 134.449219 0.386719 C 61.441406 0.386719 0.410156 61.417969 0.410156 134.425781 L 74.835938 134.425781 C 74.835938 101.957031 101.980469 74.8125 134.449219 74.8125 C 166.917969 74.8125 194.0625 101.957031 194.0625 134.425781 Z M 268.488281 134.425781 " clip-rule="nonzero"/></clipPath><clipPath id="d0415b677a"><rect x="0" width="269" y="0" height="135"/></clipPath><clipPath id="b02d19f55b"><path d="M 38.410156 165.0625 L 307 165.0625 L 307 299.101562 L 38.410156 299.101562 Z M 38.410156 165.0625 " clip-rule="nonzero"/></clipPath><clipPath id="e7dc725510"><path d="M 38.410156 165.0625 C 38.410156 238.070312 99.441406 299.101562 172.449219 299.101562 C 245.457031 299.101562 306.488281 238.070312 306.488281 165.0625 L 232.0625 165.0625 C 232.0625 197.53125 204.917969 224.671875 172.449219 224.671875 C 139.980469 224.671875 112.835938 197.53125 112.835938 165.0625 Z M 38.410156 165.0625 " clip-rule="nonzero"/></clipPath><clipPath id="76955800b4"><path d="M 0.410156 0.0625 L 268.71875 0.0625 L 268.71875 134.101562 L 0.410156 134.101562 Z M 0.410156 0.0625 " clip-rule="nonzero"/></clipPath><clipPath id="adfc668ced"><path d="M 0.410156 0.0625 C 0.410156 73.070312 61.441406 134.101562 134.449219 134.101562 C 207.457031 134.101562 268.488281 73.070312 268.488281 0.0625 L 194.0625 0.0625 C 194.0625 32.53125 166.917969 59.671875 134.449219 59.671875 C 101.980469 59.671875 74.835938 32.53125 74.835938 0.0625 Z M 0.410156 0.0625 " clip-rule="nonzero"/></clipPath><clipPath id="bd780b892e"><rect x="0" width="269" y="0" height="135"/></clipPath><clipPath id="a23fbd15bb"><path d="M 122.738281 0.347656 L 222.191406 0.347656 L 222.191406 87.839844 L 122.738281 87.839844 Z M 122.738281 0.347656 " clip-rule="nonzero"/></clipPath><clipPath id="fa3780ccaf"><path d="M 213.335938 87.839844 L 131.554688 87.839844 C 128.847656 87.839844 126.292969 86.59375 124.621094 84.464844 C 122.953125 82.332031 122.359375 79.550781 123.007812 76.921875 L 139.257812 11.265625 C 140.84375 4.851562 146.601562 0.347656 153.207031 0.347656 L 191.683594 0.347656 C 198.292969 0.347656 204.046875 4.851562 205.636719 11.265625 L 221.882812 76.921875 C 222.535156 79.550781 221.9375 82.332031 220.269531 84.464844 C 218.601562 86.59375 216.042969 87.839844 213.335938 87.839844 Z M 213.335938 87.839844 " clip-rule="nonzero"/></clipPath><clipPath id="3ea1b7e725"><path d="M 0.738281 0.347656 L 100.191406 0.347656 L 100.191406 87.839844 L 0.738281 87.839844 Z M 0.738281 0.347656 " clip-rule="nonzero"/></clipPath><clipPath id="4306d62f76"><path d="M 91.335938 87.839844 L 9.554688 87.839844 C 6.847656 87.839844 4.292969 86.59375 2.621094 84.464844 C 0.953125 82.332031 0.359375 79.550781 1.007812 76.921875 L 17.257812 11.265625 C 18.84375 4.851562 24.601562 0.347656 31.207031 0.347656 L 69.683594 0.347656 C 76.292969 0.347656 82.046875 4.851562 83.636719 11.265625 L 99.882812 76.921875 C 100.535156 79.550781 99.9375 82.332031 98.269531 84.464844 C 96.601562 86.59375 94.042969 87.839844 91.335938 87.839844 Z M 91.335938 87.839844 " clip-rule="nonzero"/></clipPath><clipPath id="8f17987e56"><rect x="0" width="101" y="0" height="88"/></clipPath><clipPath id="2beda885b1"><path d="M 122.703125 243.15625 L 222.15625 243.15625 L 222.15625 330.648438 L 122.703125 330.648438 Z M 122.703125 243.15625 " clip-rule="nonzero"/></clipPath><clipPath id="b9bc0440ea"><path d="M 131.558594 243.15625 L 213.339844 243.15625 C 216.046875 243.15625 218.601562 244.402344 220.273438 246.535156 C 221.941406 248.667969 222.535156 251.449219 221.886719 254.074219 L 205.636719 319.730469 C 204.050781 326.144531 198.292969 330.648438 191.6875 330.648438 L 153.210938 330.648438 C 146.601562 330.648438 140.847656 326.144531 139.257812 319.730469 L 123.011719 254.074219 C 122.359375 251.449219 122.957031 248.667969 124.625 246.535156 C 126.292969 244.402344 128.851562 243.15625 131.558594 243.15625 Z M 131.558594 243.15625 " clip-rule="nonzero"/></clipPath><clipPath id="159e7e3695"><path d="M 0.703125 0.15625 L 100.15625 0.15625 L 100.15625 87.648438 L 0.703125 87.648438 Z M 0.703125 0.15625 " clip-rule="nonzero"/></clipPath><clipPath id="d7ee87ddd6"><path d="M 9.558594 0.15625 L 91.339844 0.15625 C 94.046875 0.15625 96.601562 1.402344 98.273438 3.535156 C 99.941406 5.667969 100.535156 8.449219 99.886719 11.074219 L 83.636719 76.730469 C 82.050781 83.144531 76.292969 87.648438 69.6875 87.648438 L 31.210938 87.648438 C 24.601562 87.648438 18.847656 83.144531 17.257812 76.730469 L 1.011719 11.074219 C 0.359375 8.449219 0.957031 5.667969 2.625 3.535156 C 4.292969 1.402344 6.851562 0.15625 9.558594 0.15625 Z M 9.558594 0.15625 " clip-rule="nonzero"/></clipPath><clipPath id="5661f99f5d"><rect x="0" width="101" y="0" height="88"/></clipPath><clipPath id="b03b7c9a36"><path d="M 251.246094 116.03125 L 338.742188 116.03125 L 338.742188 215.488281 L 251.246094 215.488281 Z M 251.246094 116.03125 " clip-rule="nonzero"/></clipPath><clipPath id="7fc499bb73"><path d="M 251.246094 206.628906 L 251.246094 124.851562 C 251.246094 122.144531 252.492188 119.585938 254.625 117.917969 C 256.757812 116.246094 259.539062 115.652344 262.167969 116.304688 L 327.820312 132.550781 C 334.234375 134.136719 338.742188 139.894531 338.742188 146.503906 L 338.742188 184.976562 C 338.742188 191.585938 334.234375 197.34375 327.820312 198.929688 L 262.167969 215.175781 C 259.539062 215.828125 256.757812 215.234375 254.625 213.5625 C 252.492188 211.894531 251.246094 209.335938 251.246094 206.628906 Z M 251.246094 206.628906 " clip-rule="nonzero"/></clipPath><clipPath id="ad2258c728"><path d="M 0.246094 0.03125 L 87.742188 0.03125 L 87.742188 99.488281 L 0.246094 99.488281 Z M 0.246094 0.03125 " clip-rule="nonzero"/></clipPath><clipPath id="56f7b62a8e"><path d="M 0.246094 90.628906 L 0.246094 8.851562 C 0.246094 6.144531 1.492188 3.585938 3.625 1.917969 C 5.757812 0.246094 8.539062 -0.347656 11.167969 0.304688 L 76.820312 16.550781 C 83.234375 18.136719 87.742188 23.894531 87.742188 30.503906 L 87.742188 68.976562 C 87.742188 75.585938 83.234375 81.34375 76.820312 82.929688 L 11.167969 99.175781 C 8.539062 99.828125 5.757812 99.234375 3.625 97.5625 C 1.492188 95.894531 0.246094 93.335938 0.246094 90.628906 Z M 0.246094 90.628906 " clip-rule="nonzero"/></clipPath><clipPath id="f7ac73546f"><rect x="0" width="88" y="0" height="100"/></clipPath><clipPath id="094412755c"><path d="M 0.253906 116 L 87.75 116 L 87.75 215.453125 L 0.253906 215.453125 Z M 0.253906 116 " clip-rule="nonzero"/></clipPath><clipPath id="4ab10f5a5f"><path d="M 87.75 124.851562 L 87.75 206.632812 C 87.75 209.339844 86.503906 211.898438 84.371094 213.566406 C 82.238281 215.234375 79.457031 215.832031 76.828125 215.179688 L 11.175781 198.933594 C 4.761719 197.34375 0.253906 191.589844 0.253906 184.980469 L 0.253906 146.507812 C 0.253906 139.898438 4.761719 134.140625 11.175781 132.554688 L 76.828125 116.304688 C 79.457031 115.65625 82.238281 116.25 84.371094 117.917969 C 86.503906 119.589844 87.75 122.144531 87.75 124.851562 Z M 87.75 124.851562 " clip-rule="nonzero"/></clipPath><clipPath id="dac91ec9fa"><path d="M 0.253906 0 L 87.75 0 L 87.75 99.453125 L 0.253906 99.453125 Z M 0.253906 0 " clip-rule="nonzero"/></clipPath><clipPath id="b6629260fd"><path d="M 87.75 8.851562 L 87.75 90.632812 C 87.75 93.339844 86.503906 95.898438 84.371094 97.566406 C 82.238281 99.234375 79.457031 99.832031 76.828125 99.179688 L 11.175781 82.933594 C 4.761719 81.34375 0.253906 75.589844 0.253906 68.980469 L 0.253906 30.507812 C 0.253906 23.898438 4.761719 18.140625 11.175781 16.554688 L 76.828125 0.304688 C 79.457031 -0.34375 82.238281 0.25 84.371094 1.917969 C 86.503906 3.589844 87.75 6.144531 87.75 8.851562 Z M 87.75 8.851562 " clip-rule="nonzero"/></clipPath><clipPath id="39c3def190"><rect x="0" width="88" y="0" height="100"/></clipPath><clipPath id="05723caff3"><path d="M 195 189 L 307 189 L 307 301 L 195 301 Z M 195 189 " clip-rule="nonzero"/></clipPath><clipPath id="44f42205c8"><path d="M 192.066406 255.710938 L 262.390625 185.386719 L 324.261719 247.253906 L 253.933594 317.578125 Z M 192.066406 255.710938 " clip-rule="nonzero"/></clipPath><clipPath id="73ab3865ef"><path d="M 198.328125 249.449219 L 256.15625 191.621094 C 258.070312 189.707031 260.757812 188.78125 263.449219 189.105469 C 266.136719 189.433594 268.523438 190.980469 269.921875 193.300781 L 304.855469 251.210938 C 308.269531 256.871094 307.386719 264.128906 302.710938 268.800781 L 275.507812 296.003906 C 270.835938 300.679688 263.578125 301.5625 257.917969 298.148438 L 200.007812 263.214844 C 197.6875 261.816406 196.140625 259.429688 195.816406 256.738281 C 195.488281 254.050781 196.414062 251.363281 198.328125 249.449219 Z M 198.328125 249.449219 " clip-rule="nonzero"/></clipPath><clipPath id="c96ceb5c6a"><path d="M 0.359375 0 L 112 0 L 112 112 L 0.359375 112 Z M 0.359375 0 " clip-rule="nonzero"/></clipPath><clipPath id="a49306f4da"><path d="M -2.933594 66.710938 L 67.390625 -3.613281 L 129.261719 58.253906 L 58.933594 128.578125 Z M -2.933594 66.710938 " clip-rule="nonzero"/></clipPath><clipPath id="13ff869334"><path d="M 3.328125 60.449219 L 61.15625 2.621094 C 63.070312 0.707031 65.757812 -0.21875 68.449219 0.105469 C 71.136719 0.433594 73.523438 1.980469 74.921875 4.300781 L 109.855469 62.210938 C 113.269531 67.871094 112.386719 75.128906 107.710938 79.800781 L 80.507812 107.003906 C 75.835938 111.679688 68.578125 112.5625 62.917969 109.148438 L 5.007812 74.214844 C 2.6875 72.816406 1.140625 70.429688 0.816406 67.738281 C 0.488281 65.050781 1.414062 62.363281 3.328125 60.449219 Z M 3.328125 60.449219 " clip-rule="nonzero"/></clipPath><clipPath id="a470ae927b"><rect x="0" width="112" y="0" height="112"/></clipPath><clipPath id="c53fa98fd7"><path d="M 39 189 L 151 189 L 151 301 L 39 301 Z M 39 189 " clip-rule="nonzero"/></clipPath><clipPath id="bce987c313"><path d="M 83.507812 185.359375 L 153.835938 255.6875 L 91.96875 317.554688 L 21.640625 247.226562 Z M 83.507812 185.359375 " clip-rule="nonzero"/></clipPath><clipPath id="6385469e56"><path d="M 89.773438 191.625 L 147.597656 249.449219 C 149.511719 251.363281 150.441406 254.054688 150.113281 256.742188 C 149.785156 259.429688 148.238281 261.816406 145.921875 263.214844 L 88.007812 298.152344 C 82.351562 301.566406 75.09375 300.679688 70.421875 296.007812 L 43.214844 268.800781 C 38.542969 264.128906 37.65625 256.871094 41.070312 251.214844 L 76.007812 193.300781 C 77.40625 190.984375 79.792969 189.4375 82.480469 189.109375 C 85.167969 188.78125 87.859375 189.707031 89.773438 191.625 Z M 89.773438 191.625 " clip-rule="nonzero"/></clipPath><clipPath id="22371dac45"><path d="M 0 0 L 111.480469 0 L 111.480469 112 L 0 112 Z M 0 0 " clip-rule="nonzero"/></clipPath><clipPath id="29c1edabdd"><path d="M 44.507812 -3.640625 L 114.835938 66.6875 L 52.96875 128.554688 L -17.359375 58.226562 Z M 44.507812 -3.640625 " clip-rule="nonzero"/></clipPath><clipPath id="77d803c821"><path d="M 50.773438 2.625 L 108.597656 60.449219 C 110.511719 62.363281 111.441406 65.054688 111.113281 67.742188 C 110.785156 70.429688 109.238281 72.816406 106.921875 74.214844 L 49.007812 109.152344 C 43.351562 112.566406 36.09375 111.679688 31.421875 107.007812 L 4.214844 79.800781 C -0.457031 75.128906 -1.34375 67.871094 2.070312 62.214844 L 37.007812 4.300781 C 38.40625 1.984375 40.792969 0.4375 43.480469 0.109375 C 46.167969 -0.21875 48.859375 0.707031 50.773438 2.625 Z M 50.773438 2.625 " clip-rule="nonzero"/></clipPath><clipPath id="620fcb5ee7"><rect x="0" width="112" y="0" height="112"/></clipPath><clipPath id="b9a68af257"><path d="M 195 31 L 307 31 L 307 143 L 195 143 Z M 195 31 " clip-rule="nonzero"/></clipPath><clipPath id="e60874d65c"><path d="M 262.417969 146.125 L 192.089844 75.796875 L 253.957031 13.929688 L 324.285156 84.253906 Z M 262.417969 146.125 " clip-rule="nonzero"/></clipPath><clipPath id="c0c840eb53"><path d="M 256.152344 139.859375 L 198.328125 82.035156 C 196.414062 80.117188 195.484375 77.429688 195.8125 74.742188 C 196.140625 72.054688 197.6875 69.664062 200.003906 68.265625 L 257.917969 33.332031 C 263.578125 29.917969 270.832031 30.804688 275.503906 35.476562 L 302.710938 62.679688 C 307.382812 67.355469 308.269531 74.609375 304.855469 80.269531 L 269.917969 138.183594 C 268.519531 140.5 266.132812 142.046875 263.445312 142.375 C 260.757812 142.703125 258.070312 141.773438 256.152344 139.859375 Z M 256.152344 139.859375 " clip-rule="nonzero"/></clipPath><clipPath id="7bf1b46557"><path d="M 0.359375 0 L 112 0 L 112 111.878906 L 0.359375 111.878906 Z M 0.359375 0 " clip-rule="nonzero"/></clipPath><clipPath id="0389690a22"><path d="M 67.417969 115.125 L -2.910156 44.796875 L 58.957031 -17.070312 L 129.285156 53.253906 Z M 67.417969 115.125 " clip-rule="nonzero"/></clipPath><clipPath id="61f1418b80"><path d="M 61.152344 108.859375 L 3.328125 51.035156 C 1.414062 49.117188 0.484375 46.429688 0.8125 43.742188 C 1.140625 41.054688 2.6875 38.664062 5.003906 37.265625 L 62.917969 2.332031 C 68.578125 -1.082031 75.832031 -0.195312 80.503906 4.476562 L 107.710938 31.679688 C 112.382812 36.355469 113.269531 43.609375 109.855469 49.269531 L 74.917969 107.183594 C 73.519531 109.5 71.132812 111.046875 68.445312 111.375 C 65.757812 111.703125 63.070312 110.773438 61.152344 108.859375 Z M 61.152344 108.859375 " clip-rule="nonzero"/></clipPath><clipPath id="734edacb1b"><rect x="0" width="112" y="0" height="112"/></clipPath><clipPath id="bd5e572723"><path d="M 33 31 L 145 31 L 145 143 L 33 143 Z M 33 31 " clip-rule="nonzero"/></clipPath><clipPath id="c1abba3d0d"><path d="M 148.5 75.773438 L 78.171875 146.097656 L 16.304688 84.230469 L 86.628906 13.902344 Z M 148.5 75.773438 " clip-rule="nonzero"/></clipPath><clipPath id="296c46db97"><path d="M 142.234375 82.035156 L 84.410156 139.863281 C 82.492188 141.777344 79.804688 142.703125 77.117188 142.375 C 74.429688 142.046875 72.042969 140.503906 70.640625 138.183594 L 35.707031 80.269531 C 32.292969 74.613281 33.179688 67.355469 37.851562 62.683594 L 65.054688 35.476562 C 69.730469 30.804688 76.984375 29.921875 82.644531 33.335938 L 140.558594 68.269531 C 142.875 69.667969 144.421875 72.054688 144.75 74.742188 C 145.078125 77.429688 144.148438 80.121094 142.234375 82.035156 Z M 142.234375 82.035156 " clip-rule="nonzero"/></clipPath><clipPath id="78d5c73469"><path d="M 0 0 L 112 0 L 112 111.878906 L 0 111.878906 Z M 0 0 " clip-rule="nonzero"/></clipPath><clipPath id="45e6a1e726"><path d="M 115.5 44.773438 L 45.171875 115.097656 L -16.695312 53.230469 L 53.628906 -17.097656 Z M 115.5 44.773438 " clip-rule="nonzero"/></clipPath><clipPath id="7f378c6d53"><path d="M 109.234375 51.035156 L 51.410156 108.863281 C 49.492188 110.777344 46.804688 111.703125 44.117188 111.375 C 41.429688 111.046875 39.042969 109.503906 37.640625 107.183594 L 2.707031 49.269531 C -0.707031 43.613281 0.179688 36.355469 4.851562 31.683594 L 32.054688 4.476562 C 36.730469 -0.195312 43.984375 -1.078125 49.644531 2.335938 L 107.558594 37.269531 C 109.875 38.667969 111.421875 41.054688 111.75 43.742188 C 112.078125 46.429688 111.148438 49.121094 109.234375 51.035156 Z M 109.234375 51.035156 " clip-rule="nonzero"/></clipPath><clipPath id="6781297fba"><rect x="0" width="112" y="0" height="112"/></clipPath><clipPath id="523d8f9a38"><rect x="0" width="339" y="0" height="331"/></clipPath></defs><g transform="matrix(1, 0, 0, 1, 18, 22)"><g clip-path="url(#523d8f9a38)"><g clip-path="url(#0cd6cd8e8b)"><g clip-path="url(#21e208c215)"><g transform="matrix(1, 0, 0, 1, 38, 32)"><g clip-path="url(#d0415b677a)"><g clip-path="url(#0a620860e8)"><g clip-path="url(#a30417d58d)"><path fill="#fefefe" d="M 0.410156 0.386719 L 268.488281 0.386719 L 268.488281 134.425781 L 0.410156 134.425781 Z M 0.410156 0.386719 " fill-opacity="1" fill-rule="nonzero"/></g></g></g></g></g></g><g clip-path="url(#b02d19f55b)"><g clip-path="url(#e7dc725510)"><g transform="matrix(1, 0, 0, 1, 38, 165)"><g clip-path="url(#bd780b892e)"><g clip-path="url(#76955800b4)"><g clip-path="url(#adfc668ced)"><path fill="#fefefe" d="M 268.488281 134.101562 L 0.410156 134.101562 L 0.410156 0.0625 L 268.488281 0.0625 Z M 268.488281 134.101562 " fill-opacity="1" fill-rule="nonzero"/></g></g></g></g></g></g><g clip-path="url(#a23fbd15bb)"><g clip-path="url(#fa3780ccaf)"><g transform="matrix(1, 0, 0, 1, 122, 0)"><g clip-path="url(#8f17987e56)"><g clip-path="url(#3ea1b7e725)"><g clip-path="url(#4306d62f76)"><path fill="#fefefe" d="M 102.585938 87.839844 L -1.65625 87.839844 L -1.65625 0.347656 L 102.585938 0.347656 Z M 102.585938 87.839844 " fill-opacity="1" fill-rule="nonzero"/></g></g></g></g></g></g><g clip-path="url(#2beda885b1)"><g clip-path="url(#b9bc0440ea)"><g transform="matrix(1, 0, 0, 1, 122, 243)"><g clip-path="url(#5661f99f5d)"><g clip-path="url(#159e7e3695)"><g clip-path="url(#d7ee87ddd6)"><path fill="#fefefe" d="M -1.691406 0.15625 L 102.550781 0.15625 L 102.550781 87.648438 L -1.691406 87.648438 Z M -1.691406 0.15625 " fill-opacity="1" fill-rule="nonzero"/></g></g></g></g></g></g><g clip-path="url(#b03b7c9a36)"><g clip-path="url(#7fc499bb73)"><g transform="matrix(1, 0, 0, 1, 251, 116)"><g clip-path="url(#f7ac73546f)"><g clip-path="url(#ad2258c728)"><g clip-path="url(#56f7b62a8e)"><path fill="#fefefe" d="M 0.246094 101.878906 L 0.246094 -2.363281 L 87.742188 -2.363281 L 87.742188 101.878906 Z M 0.246094 101.878906 " fill-opacity="1" fill-rule="nonzero"/></g></g></g></g></g></g><g clip-path="url(#094412755c)"><g clip-path="url(#4ab10f5a5f)"><g transform="matrix(1, 0, 0, 1, 0, 116)"><g clip-path="url(#39c3def190)"><g clip-path="url(#dac91ec9fa)"><g clip-path="url(#b6629260fd)"><path fill="#fefefe" d="M 87.75 -2.398438 L 87.75 101.84375 L 0.253906 101.84375 L 0.253906 -2.398438 Z M 87.75 -2.398438 " fill-opacity="1" fill-rule="nonzero"/></g></g></g></g></g></g><g clip-path="url(#05723caff3)"><g clip-path="url(#44f42205c8)"><g clip-path="url(#73ab3865ef)"><g transform="matrix(1, 0, 0, 1, 195, 189)"><g clip-path="url(#a470ae927b)"><g clip-path="url(#c96ceb5c6a)"><g clip-path="url(#a49306f4da)"><g clip-path="url(#13ff869334)"><path fill="#fefefe" d="M -4.625 68.402344 L 69.082031 -5.308594 L 130.953125 56.5625 L 57.242188 130.269531 Z M -4.625 68.402344 " fill-opacity="1" fill-rule="nonzero"/></g></g></g></g></g></g></g></g><g clip-path="url(#c53fa98fd7)"><g clip-path="url(#bce987c313)"><g clip-path="url(#6385469e56)"><g transform="matrix(1, 0, 0, 1, 39, 189)"><g clip-path="url(#620fcb5ee7)"><g clip-path="url(#22371dac45)"><g clip-path="url(#29c1edabdd)"><g clip-path="url(#77d803c821)"><path fill="#fefefe" d="M 42.816406 -5.332031 L 116.527344 68.378906 L 54.660156 130.246094 L -19.050781 56.535156 Z M 42.816406 -5.332031 " fill-opacity="1" fill-rule="nonzero"/></g></g></g></g></g></g></g></g><g clip-path="url(#b9a68af257)"><g clip-path="url(#e60874d65c)"><g clip-path="url(#c0c840eb53)"><g transform="matrix(1, 0, 0, 1, 195, 31)"><g clip-path="url(#734edacb1b)"><g clip-path="url(#7bf1b46557)"><g clip-path="url(#0389690a22)"><g clip-path="url(#61f1418b80)"><path fill="#fefefe" d="M 69.109375 116.816406 L -4.601562 43.105469 L 57.265625 -18.761719 L 130.976562 54.945312 Z M 69.109375 116.816406 " fill-opacity="1" fill-rule="nonzero"/></g></g></g></g></g></g></g></g><g clip-path="url(#bd5e572723)"><g clip-path="url(#c1abba3d0d)"><g clip-path="url(#296c46db97)"><g transform="matrix(1, 0, 0, 1, 33, 31)"><g clip-path="url(#6781297fba)"><g clip-path="url(#78d5c73469)"><g clip-path="url(#45e6a1e726)"><g clip-path="url(#7f378c6d53)"><path fill="#fefefe" d="M 117.191406 43.082031 L 43.480469 116.789062 L -18.386719 54.921875 L 55.320312 -18.789062 Z M 117.191406 43.082031 " fill-opacity="1" fill-rule="nonzero"/></g></g></g></g></g></g></g></g></g></g></svg>