<svg xmlns="http://www.w3.org/2000/svg" xmlns:xlink="http://www.w3.org/1999/xlink" width="500" zoomAndPan="magnify" viewBox="0 0 375 374.999991" height="500" preserveAspectRatio="xMidYMid meet" version="1.0"><defs><clipPath id="550a4f53d7"><path d="M 176 218 L 251 218 L 251 311.957031 L 176 311.957031 Z M 176 218 " clip-rule="nonzero"/></clipPath><clipPath id="76821f810d"><path d="M 103 218 L 178 218 L 178 311.957031 L 103 311.957031 Z M 103 218 " clip-rule="nonzero"/></clipPath><clipPath id="af8e769ff6"><path d="M 313 151 L 343.40625 151 L 343.40625 195 L 313 195 Z M 313 151 " clip-rule="nonzero"/></clipPath><clipPath id="af99ebaf4d"><path d="M 31.40625 129 L 114 129 L 114 272 L 31.40625 272 Z M 31.40625 129 " clip-rule="nonzero"/></clipPath></defs><path fill="#ffffff" d="M 180.523438 232.203125 L 244.757812 219.964844 L 249.730469 218.816406 L 185.113281 68.898438 C 183.582031 65.457031 180.523438 63.164062 176.699219 63.164062 L 176.699219 75.785156 Z M 180.523438 232.203125 " fill-opacity="1" fill-rule="nonzero"/><path fill="#ffffff" d="M 173.640625 232.203125 L 108.640625 219.964844 L 103.671875 218.816406 L 168.289062 68.898438 C 169.4375 65.457031 172.878906 63.164062 176.699219 63.164062 L 176.699219 75.785156 Z M 173.640625 232.203125 " fill-opacity="1" fill-rule="evenodd"/><g clip-path="url(#550a4f53d7)"><path fill="#ffffff" d="M 180.523438 239.085938 L 176.699219 298.367188 L 176.316406 303.71875 L 209.964844 311.367188 C 217.996094 313.28125 225.640625 308.308594 227.554688 300.277344 L 248.582031 223.789062 L 250.113281 218.816406 L 244.378906 219.964844 " fill-opacity="1" fill-rule="evenodd"/></g><g clip-path="url(#76821f810d)"><path fill="#ffffff" d="M 173.257812 238.703125 L 176.699219 298.367188 L 177.082031 303.71875 L 143.4375 311.367188 C 135.40625 313.28125 127.757812 308.308594 125.847656 300.277344 L 104.816406 223.789062 L 103.289062 218.816406 L 108.640625 219.964844 " fill-opacity="1" fill-rule="evenodd"/></g><path fill="#ffffff" d="M 244.378906 271.59375 L 260.054688 218.816406 L 239.023438 171.394531 L 285.289062 151.507812 L 321.230469 151.507812 Z M 244.378906 271.59375 " fill-opacity="1" fill-rule="evenodd"/><g clip-path="url(#af8e769ff6)"><path fill="#ffffff" d="M 313.964844 183.25 L 337.289062 194.339844 C 341.113281 196.253906 344.9375 192.046875 343.023438 188.222656 L 322.757812 151.125 Z M 313.964844 183.25 " fill-opacity="1" fill-rule="evenodd"/></g><g clip-path="url(#af99ebaf4d)"><path fill="#ffffff" d="M 108.640625 271.976562 L 93.347656 217.671875 L 113.996094 171.011719 L 39.816406 130.472656 C 34.847656 127.796875 29.113281 133.152344 32.171875 138.503906 Z M 108.640625 271.976562 " fill-opacity="1" fill-rule="evenodd"/></g></svg>