<svg xmlns="http://www.w3.org/2000/svg" xmlns:xlink="http://www.w3.org/1999/xlink" width="500" zoomAndPan="magnify" viewBox="0 0 375 374.999991" height="500" preserveAspectRatio="xMidYMid meet" version="1.0"><path stroke-linecap="butt" transform="matrix(0.75, 0, 0, 0.75, 32.730658, 30.779339)" fill="none" stroke-linejoin="miter" d="M 386.218523 208.960895 L 386.218523 318.648403 C 386.218523 354.544238 357.114355 383.648407 321.218519 383.648407 L 91.499754 383.648407 C 55.603918 383.648407 26.49975 354.544238 26.49975 318.648403 L 26.49975 91.502554 C 26.49975 55.60151 55.603918 26.50255 91.499754 26.50255 L 321.218519 26.50255 C 357.114355 26.50255 386.218523 55.60151 386.218523 91.502554 Z M 386.218523 208.960895 " stroke="#ffffff" stroke-width="53" stroke-opacity="1" stroke-miterlimit="4"/><path stroke-linecap="round" transform="matrix(0.51717, 0.543171, -0.543171, 0.51717, 252.10241, 161.974837)" fill="none" stroke-linejoin="miter" d="M 22.497915 22.501245 L 147.903446 22.502193 " stroke="#ffffff" stroke-width="45" stroke-opacity="1" stroke-miterlimit="4"/><path stroke-linecap="round" transform="matrix(0.537337, -0.523229, 0.523229, 0.537337, 25.726255, 242.562289)" fill="none" stroke-linejoin="miter" d="M 22.501569 22.500009 L 161.618757 22.502042 " stroke="#ffffff" stroke-width="45" stroke-opacity="1" stroke-miterlimit="4"/><path stroke-linecap="round" transform="matrix(0.53033, -0.53033, 0.53033, 0.53033, 100.065612, 312.723027)" fill="none" stroke-linejoin="miter" d="M 22.499617 22.498917 L 261.947349 22.5026 " stroke="#ffffff" stroke-width="45" stroke-opacity="1" stroke-miterlimit="4"/><path stroke-linecap="round" transform="matrix(0.518926, 0.541494, -0.541494, 0.518926, 127.487838, 146.132143)" fill="none" stroke-linejoin="miter" d="M 22.500931 22.500171 L 136.503466 22.497913 " stroke="#ffffff" stroke-width="45" stroke-opacity="1" stroke-miterlimit="4"/></svg>