<svg xmlns="http://www.w3.org/2000/svg" xmlns:xlink="http://www.w3.org/1999/xlink" width="500" zoomAndPan="magnify" viewBox="0 0 375 374.999991" height="500" preserveAspectRatio="xMidYMid meet" version="1.0"><defs><clipPath id="e930b14786"><path d="M 201 201 L 321 201 L 321 321 L 201 321 Z M 201 201 " clip-rule="nonzero"/></clipPath><clipPath id="45ea0877cc"><path d="M 190.15625 229.148438 L 229.15625 190.152344 L 332.132812 293.128906 L 293.132812 332.125 Z M 190.15625 229.148438 " clip-rule="nonzero"/></clipPath><clipPath id="02d3817652"><path d="M 209.65625 209.652344 C 220.425781 198.882812 237.886719 198.882812 248.652344 209.652344 L 312.582031 273.582031 C 323.351562 284.351562 323.351562 301.808594 312.582031 312.578125 C 301.8125 323.347656 284.355469 323.347656 273.585938 312.578125 L 209.65625 248.648438 C 198.886719 237.878906 198.886719 220.421875 209.65625 209.652344 Z M 209.65625 209.652344 " clip-rule="nonzero"/></clipPath><clipPath id="010fe178d2"><path d="M 0 0 L 120 0 L 120 120 L 0 120 Z M 0 0 " clip-rule="nonzero"/></clipPath><clipPath id="5364969761"><path d="M -10.84375 28.148438 L 28.15625 -10.847656 L 131.132812 92.128906 L 92.132812 131.125 Z M -10.84375 28.148438 " clip-rule="nonzero"/></clipPath><clipPath id="9548881406"><path d="M 8.65625 8.652344 C 19.425781 -2.117188 36.886719 -2.117188 47.652344 8.652344 L 111.582031 72.582031 C 122.351562 83.351562 122.351562 100.808594 111.582031 111.578125 C 100.8125 122.347656 83.355469 122.347656 72.585938 111.578125 L 8.65625 47.648438 C -2.113281 36.878906 -2.113281 19.421875 8.65625 8.652344 Z M 8.65625 8.652344 " clip-rule="nonzero"/></clipPath><clipPath id="0564cd375c"><rect x="0" width="120" y="0" height="120"/></clipPath><clipPath id="90eb75b096"><path d="M 0.921875 0.921875 L 275.71875 0.921875 L 275.71875 275.71875 L 0.921875 275.71875 Z M 0.921875 0.921875 " clip-rule="nonzero"/></clipPath><clipPath id="38ad0d1bfd"><rect x="0" width="333" y="0" height="333"/></clipPath></defs><g transform="matrix(1, 0, 0, 1, 21, 21)"><g clip-path="url(#38ad0d1bfd)"><g clip-path="url(#e930b14786)"><g clip-path="url(#45ea0877cc)"><g clip-path="url(#02d3817652)"><g transform="matrix(1, 0, 0, 1, 201, 201)"><g clip-path="url(#0564cd375c)"><g clip-path="url(#010fe178d2)"><g clip-path="url(#5364969761)"><g clip-path="url(#9548881406)"><path fill="#ffffff" d="M -10.84375 28.148438 L 28.15625 -10.847656 L 131.132812 92.128906 L 92.132812 131.125 Z M -10.84375 28.148438 " fill-opacity="1" fill-rule="nonzero"/></g></g></g></g></g></g></g></g><g clip-path="url(#90eb75b096)"><path fill="#fefefe" d="M 138.492188 0.914062 C 62.507812 0.914062 0.90625 62.511719 0.90625 138.5 C 0.90625 214.488281 62.503906 276.085938 138.492188 276.085938 C 214.480469 276.085938 276.078125 214.488281 276.078125 138.5 C 276.078125 62.511719 214.476562 0.914062 138.492188 0.914062 Z M 138.492188 225.710938 C 90.324219 225.710938 51.277344 186.664062 51.277344 138.496094 C 51.277344 90.332031 90.324219 51.285156 138.492188 51.285156 C 186.660156 51.285156 225.707031 90.332031 225.707031 138.496094 C 225.707031 186.664062 186.660156 225.710938 138.492188 225.710938 Z M 138.492188 225.710938 " fill-opacity="1" fill-rule="nonzero"/></g></g></g></svg>