<svg xmlns="http://www.w3.org/2000/svg" xmlns:xlink="http://www.w3.org/1999/xlink" width="500" zoomAndPan="magnify" viewBox="0 0 375 374.999991" height="500" preserveAspectRatio="xMidYMid meet" version="1.0"><defs><clipPath id="2c05c0d3ac"><path d="M 56.707031 147.371094 L 323.058594 147.371094 L 323.058594 203.632812 L 56.707031 203.632812 Z M 56.707031 147.371094 " clip-rule="nonzero"/></clipPath><clipPath id="f25566a041"><path d="M 84.835938 147.371094 L 294.914062 147.371094 C 302.375 147.371094 309.527344 150.335938 314.804688 155.613281 C 320.078125 160.886719 323.042969 168.042969 323.042969 175.503906 C 323.042969 182.964844 320.078125 190.117188 314.804688 195.394531 C 309.527344 200.667969 302.375 203.632812 294.914062 203.632812 L 84.835938 203.632812 C 77.375 203.632812 70.21875 200.667969 64.945312 195.394531 C 59.667969 190.117188 56.707031 182.964844 56.707031 175.503906 C 56.707031 168.042969 59.667969 160.886719 64.945312 155.613281 C 70.21875 150.335938 77.375 147.371094 84.835938 147.371094 Z M 84.835938 147.371094 " clip-rule="nonzero"/></clipPath><clipPath id="7b6a472d80"><path d="M 0.707031 0.371094 L 267.058594 0.371094 L 267.058594 56.632812 L 0.707031 56.632812 Z M 0.707031 0.371094 " clip-rule="nonzero"/></clipPath><clipPath id="c4e57eda6d"><path d="M 28.835938 0.371094 L 238.914062 0.371094 C 246.375 0.371094 253.527344 3.335938 258.804688 8.613281 C 264.078125 13.886719 267.042969 21.042969 267.042969 28.503906 C 267.042969 35.964844 264.078125 43.117188 258.804688 48.394531 C 253.527344 53.667969 246.375 56.632812 238.914062 56.632812 L 28.835938 56.632812 C 21.375 56.632812 14.21875 53.667969 8.945312 48.394531 C 3.667969 43.117188 0.707031 35.964844 0.707031 28.503906 C 0.707031 21.042969 3.667969 13.886719 8.945312 8.613281 C 14.21875 3.335938 21.375 0.371094 28.835938 0.371094 Z M 28.835938 0.371094 " clip-rule="nonzero"/></clipPath><clipPath id="d5167958ca"><rect x="0" width="268" y="0" height="57"/></clipPath><clipPath id="c3f68c9a0f"><path d="M 12 147 L 151 147 L 151 286 L 12 286 Z M 12 147 " clip-rule="nonzero"/></clipPath><clipPath id="b36dc0d896"><path d="M 40.367188 135.71875 L 162.351562 257.703125 L 122.570312 297.488281 L 0.585938 175.5 Z M 40.367188 135.71875 " clip-rule="nonzero"/></clipPath><clipPath id="2dad631be3"><path d="M 60.257812 155.609375 L 142.425781 237.78125 C 147.703125 243.054688 150.664062 250.210938 150.664062 257.671875 C 150.664062 265.128906 147.703125 272.285156 142.425781 277.5625 C 137.152344 282.835938 129.996094 285.800781 122.535156 285.800781 C 115.074219 285.800781 107.921875 282.835938 102.644531 277.5625 L 20.476562 195.390625 C 15.199219 190.117188 12.234375 182.960938 12.234375 175.5 C 12.234375 168.039062 15.199219 160.882812 20.476562 155.609375 C 25.75 150.335938 32.90625 147.371094 40.367188 147.371094 C 47.828125 147.371094 54.980469 150.335938 60.257812 155.609375 Z M 60.257812 155.609375 " clip-rule="nonzero"/></clipPath><clipPath id="bef2358b9a"><path d="M 0.160156 0.359375 L 138.878906 0.359375 L 138.878906 138.839844 L 0.160156 138.839844 Z M 0.160156 0.359375 " clip-rule="nonzero"/></clipPath><clipPath id="83e5780fd1"><path d="M 28.367188 -11.28125 L 150.351562 110.703125 L 110.570312 150.488281 L -11.414062 28.5 Z M 28.367188 -11.28125 " clip-rule="nonzero"/></clipPath><clipPath id="7ec77e17a1"><path d="M 48.257812 8.609375 L 130.425781 90.78125 C 135.703125 96.054688 138.664062 103.210938 138.664062 110.671875 C 138.664062 118.128906 135.703125 125.285156 130.425781 130.5625 C 125.152344 135.835938 117.996094 138.800781 110.535156 138.800781 C 103.074219 138.800781 95.921875 135.835938 90.644531 130.5625 L 8.476562 48.390625 C 3.199219 43.117188 0.234375 35.960938 0.234375 28.5 C 0.234375 21.039062 3.199219 13.882812 8.476562 8.609375 C 13.75 3.335938 20.90625 0.371094 28.367188 0.371094 C 35.828125 0.371094 42.980469 3.335938 48.257812 8.609375 Z M 48.257812 8.609375 " clip-rule="nonzero"/></clipPath><clipPath id="c8a948f783"><rect x="0" width="139" y="0" height="139"/></clipPath><clipPath id="6d45eaaa5e"><path d="M 12 65 L 151 65 L 151 204 L 12 204 Z M 12 65 " clip-rule="nonzero"/></clipPath><clipPath id="ed78f9b37f"><path d="M 162.316406 93.324219 L 40.328125 215.3125 L 0.546875 175.53125 L 122.535156 53.542969 Z M 162.316406 93.324219 " clip-rule="nonzero"/></clipPath><clipPath id="138d9f1b7a"><path d="M 142.425781 113.214844 L 60.253906 195.386719 C 54.980469 200.660156 47.824219 203.625 40.363281 203.625 C 32.902344 203.625 25.75 200.660156 20.472656 195.386719 C 15.199219 190.109375 12.234375 182.957031 12.234375 175.496094 C 12.234375 168.035156 15.199219 160.878906 20.472656 155.605469 L 102.644531 73.433594 C 107.917969 68.160156 115.074219 65.195312 122.535156 65.195312 C 129.996094 65.195312 137.148438 68.160156 142.425781 73.433594 C 147.699219 78.710938 150.664062 85.863281 150.664062 93.324219 C 150.664062 100.785156 147.699219 107.941406 142.425781 113.214844 Z M 142.425781 113.214844 " clip-rule="nonzero"/></clipPath><clipPath id="4731caddbd"><path d="M 0.160156 0.0390625 L 138.878906 0.0390625 L 138.878906 138.761719 L 0.160156 138.761719 Z M 0.160156 0.0390625 " clip-rule="nonzero"/></clipPath><clipPath id="7389a6e557"><path d="M 150.316406 28.324219 L 28.328125 150.3125 L -11.453125 110.53125 L 110.535156 -11.457031 Z M 150.316406 28.324219 " clip-rule="nonzero"/></clipPath><clipPath id="9f7de9e42d"><path d="M 130.425781 48.214844 L 48.253906 130.386719 C 42.980469 135.660156 35.824219 138.625 28.363281 138.625 C 20.902344 138.625 13.75 135.660156 8.472656 130.386719 C 3.199219 125.109375 0.234375 117.957031 0.234375 110.496094 C 0.234375 103.035156 3.199219 95.878906 8.472656 90.605469 L 90.644531 8.433594 C 95.917969 3.160156 103.074219 0.195312 110.535156 0.195312 C 117.996094 0.195312 125.148438 3.160156 130.425781 8.433594 C 135.699219 13.710938 138.664062 20.863281 138.664062 28.324219 C 138.664062 35.785156 135.699219 42.941406 130.425781 48.214844 Z M 130.425781 48.214844 " clip-rule="nonzero"/></clipPath><clipPath id="327f4317eb"><rect x="0" width="139" y="0" height="139"/></clipPath><clipPath id="139297e053"><rect x="0" width="352" y="0" height="351"/></clipPath></defs><g transform="matrix(1, 0, 0, 1, 20, 12)"><g clip-path="url(#139297e053)"><g clip-path="url(#2c05c0d3ac)"><g clip-path="url(#f25566a041)"><g transform="matrix(1, 0, 0, 1, 56, 147)"><g clip-path="url(#d5167958ca)"><g clip-path="url(#7b6a472d80)"><g clip-path="url(#c4e57eda6d)"><path fill="#ffffff" d="M 0.707031 0.371094 L 267.058594 0.371094 L 267.058594 56.632812 L 0.707031 56.632812 Z M 0.707031 0.371094 " fill-opacity="1" fill-rule="nonzero"/></g></g></g></g></g></g><g clip-path="url(#c3f68c9a0f)"><g clip-path="url(#b36dc0d896)"><g clip-path="url(#2dad631be3)"><g transform="matrix(1, 0, 0, 1, 12, 147)"><g clip-path="url(#c8a948f783)"><g clip-path="url(#bef2358b9a)"><g clip-path="url(#83e5780fd1)"><g clip-path="url(#7ec77e17a1)"><path fill="#ffffff" d="M 28.367188 -11.28125 L 150.351562 110.703125 L 110.570312 150.488281 L -11.414062 28.5 Z M 28.367188 -11.28125 " fill-opacity="1" fill-rule="nonzero"/></g></g></g></g></g></g></g></g><g clip-path="url(#6d45eaaa5e)"><g clip-path="url(#ed78f9b37f)"><g clip-path="url(#138d9f1b7a)"><g transform="matrix(1, 0, 0, 1, 12, 65)"><g clip-path="url(#327f4317eb)"><g clip-path="url(#4731caddbd)"><g clip-path="url(#7389a6e557)"><g clip-path="url(#9f7de9e42d)"><path fill="#ffffff" d="M 150.316406 28.324219 L 28.328125 150.3125 L -11.453125 110.53125 L 110.535156 -11.457031 Z M 150.316406 28.324219 " fill-opacity="1" fill-rule="nonzero"/></g></g></g></g></g></g></g></g></g></g></svg>